<svg width="220" height="204" viewBox="0 0 220 204" fill="none" xmlns="http://www.w3.org/2000/svg">
<rect width="220" height="204" rx="40" fill="black"/>
<path d="M66.5324 65.3443C67.3005 60.5438 68.0532 56.3606 69.9336 51.8478C71.2816 48.6125 72.3854 44.7236 74.7923 42.0493C79.2504 37.0959 84.9708 33.0173 91.366 31.0632C95.4128 29.8267 99.6616 28.1031 103.459 26.2045C107.324 24.2717 110.747 23.9154 114.958 23.0733C123.083 21.4483 131.758 22.1015 140.007 22.1015C143.262 22.1015 145.798 22.2903 148.753 23.4512C151.505 24.5322 154.017 26.2907 156.635 27.6621C158.521 28.6502 160.509 30.2095 161.764 31.927C163.392 34.1548 164.165 36.7574 166.11 38.8642C166.673 39.4745 166.876 40.724 167.108 41.5365C167.493 42.8821 168.938 43.3555 169.052 44.8296C169.205 46.817 170.509 48.6835 170.509 50.7411C170.509 56.1941 171.524 62.7591 169.781 67.9896C165.763 80.042 155.693 90.119 145.73 97.52C141.031 101.01 134.748 103.681 128.994 104.727C126.33 105.211 118.861 108.005 118.062 110.801C117.062 114.301 117.547 118.337 116.2 121.706C114.809 125.183 115.606 130.213 115.606 133.961C115.606 138.184 115.12 142.288 115.12 146.485C115.12 147.883 115.565 156.837 113.662 156.203" stroke="white" stroke-width="3" stroke-linecap="round"/>
<path d="M66.0466 65.8302C66.0466 60.6316 67.5669 55.7727 68.8538 50.7681C69.8114 47.0443 72.5468 43.542 75.5481 41.1586C77.6611 39.4806 79.665 37.3645 81.5945 35.49C84.3561 32.8074 88.3766 31.6539 91.9059 30.2534C98.512 27.6319 105.628 27.6278 112.475 25.9885C117.559 24.7711 122.749 24.0528 127.861 22.9653C132.053 22.0732 135.562 21.1298 139.899 21.1298C142.234 21.1298 144.859 20.7768 147.08 21.6156C149.013 22.3462 150.563 23.6851 152.424 24.5309C156.387 26.3323 159.48 29.9184 162.735 32.6828C168.227 37.3453 169.823 41.8 171.481 48.8246C174.773 62.7681 163.723 74.2012 154.746 83.0517C151.94 85.8175 148.556 87.5613 145.622 90.1239C140.705 94.4183 135.681 98.229 130.344 102.001C127.163 104.248 122.791 106.676 120.68 110.153C119.559 112 119.979 115.784 119.979 117.819C119.979 125.73 119.781 133.227 118.629 141.033C118.175 144.11 117.571 147.168 117.171 150.264C117.062 151.115 117.576 154.299 116.577 152.802" stroke="black" stroke-width="3" stroke-linecap="round"/>
<path d="M64.589 66.8019C63.9258 61.1653 63.8241 55.7921 66.6404 50.6601C68.5422 47.1947 70.8428 42.886 73.9285 40.3488C76.9076 37.8993 80.1501 35.2325 83.538 33.3846C87.008 31.4919 90.074 28.244 93.9843 27.2302C100.61 25.5124 107.212 25.3675 113.905 24.288C117.738 23.6697 122.163 23.5591 126.052 23.5591C129.848 23.5591 133.553 22.5874 137.362 22.5874C142.418 22.5874 145.524 24.1719 149.887 26.4744C154.03 28.6611 159.215 33.3594 160.792 37.8924C162.717 43.4279 164.193 48.659 164.193 54.6551C164.193 59.2608 165.165 65.0677 163.923 69.5012C161.102 79.5759 154.277 84.6667 146.486 90.9876C141.638 94.9209 136.429 98.1709 131.424 101.893C128.671 103.94 126.155 105.602 123.002 107.021C120.434 108.177 119.241 110.173 117.063 111.745C109.213 117.415 112.633 128.509 115.012 136.174C115.659 138.259 115.685 140.534 116.577 142.598C117.364 144.417 116.522 146.487 117.306 148.213C118.245 150.277 118.521 153.439 118.521 155.717" stroke="#D31C1C" stroke-width="3" stroke-linecap="round"/>
<path d="M70.9053 65.3443C68.5999 62.0783 67.0183 58.4241 67.0183 54.4121C67.0183 51.8811 66.4272 48.7216 67.7741 46.5032C69.0469 44.4068 70.4614 42.6843 71.877 40.6727C74.3047 37.2229 79.1055 35.4086 82.8092 33.7625C88.877 31.0657 95.2842 28.4756 101.731 26.7173C105.024 25.8193 108.557 25.1916 111.935 24.6389C115.502 24.0551 119.093 24.4601 122.624 23.937C128.784 23.0244 134.833 22.5225 140.898 24.3419C142.882 24.9372 144.503 26.3515 146.405 27.1492C147.778 27.7251 149.214 28.0897 150.481 28.9038C152.152 29.9784 154.278 31.2986 155.447 32.8987C157.662 35.9287 159.313 39.1685 161.17 42.4003C162.902 45.4156 162.848 48.2692 163.599 51.5239C164.941 57.3399 164.193 63.7956 164.193 69.7442C164.193 77.5456 158.942 84.5623 151.56 87.2086C148.077 88.4576 145.338 90.9844 141.87 92.3103C137.866 93.8411 132.976 95.381 129.48 97.8979C124.168 101.723 119.493 106.792 119.493 113.689C119.493 118.697 117.51 122.774 116.685 127.536C115.976 131.636 116.022 135.988 115.147 139.926C114.162 144.36 115.959 149.689 117.549 153.665C118.256 155.434 118.113 158.479 119.115 159.982C119.41 160.425 121.325 163.193 119.979 162.519" stroke="#D31C1C" stroke-width="3" stroke-linecap="round"/>
<path d="M117.549 173.208C115.48 172.87 112.861 172.599 111.827 175.044C110.888 177.263 110.261 178.444 110.261 180.982C110.261 187.301 116.507 188.756 121.895 188.756C127.069 188.756 127.907 181.78 128.67 177.581C129.598 172.479 129.002 166.892 123.002 166.892C120.868 166.892 118.263 167.186 116.415 168.35C115.012 169.233 113.988 170.751 112.69 171.643C111.034 172.782 112.144 180.807 112.96 182.44C114.324 185.167 120.686 189.116 122.3 184.275C123.381 181.033 125.189 172.237 119.25 172.237C117.121 172.237 115.12 172.622 115.12 175.179C115.12 176.789 114.442 180.25 115.66 181.468C118.153 183.961 121.082 183.898 124.351 183.898C127.113 183.898 126.781 180.181 126.781 178.283C126.781 174.899 125.639 173.468 123.218 171.103C121.928 169.843 119.654 170.227 117.927 170.293C115.945 170.369 114.634 173.457 114.634 175.152C114.634 178.756 114.57 180.123 117.549 182.44C123.549 187.107 126.272 174.211 122.624 170.563C117.285 165.224 113.511 175.664 116.577 179.903C118.115 182.028 120.875 184.802 123.38 182.44C126.2 179.781 126.295 178.165 126.295 174.261C126.295 171.758 126.158 170.12 123.866 168.647C122.891 168.02 119.979 167.93 119.979 169.321" stroke="#D31C1C" stroke-width="3" stroke-linecap="round"/>
<path d="M69.4477 64.8584C69.2754 64.787 65.2757 62.874 66.6404 64.7505C67.0036 65.2498 67.4002 65.3443 67.9901 65.3443C70.6643 65.3443 67.5042 63.4333 67.5042 62.1861C67.5042 61.076 67.1129 59.0547 67.6122 58.0562C68.2695 56.7415 69.7812 55.7267 70.3654 54.4121C71.4506 51.9706 71.754 49.0461 73.0917 46.6382C74.7433 43.6654 77.6213 41.129 79.894 38.3513C82.167 35.5732 85.2598 32.6127 88.7747 31.4411C92.4764 30.2072 96.5999 29.5076 99.9498 27.4461C101.7 26.369 104.177 25.6179 106.131 25.0168C108.006 24.44 109.261 23.6629 111.233 23.5591C114.522 23.386 117.315 21.2956 120.464 21.1298C124.31 20.9274 127.954 20.158 131.882 20.158C135.875 20.158 139.22 22.5098 143.058 23.1003C145.172 23.4255 146.604 25.835 148.753 25.9885C151.424 26.1793 155.205 27.1478 157.634 28.148C161.192 29.6133 167.504 30.3209 168.539 34.9772C168.914 36.6635 169.538 37.9789 169.538 39.7549C169.538 41.252 167.677 37.2008 167.594 35.706C167.429 32.7263 162.821 29.362 160.792 27.4461C158.092 24.8957 153.782 24.6937 150.589 23.1812C149.173 22.5104 146.991 21.4909 145.487 21.1568C142.614 20.5184 145.995 20.6439 147.295 20.6439C151.551 20.6439 156.5 23.7556 159.28 26.9333C162.345 30.436 166.632 33.1271 167.135 38.1624C167.275 39.5569 168.08 40.5972 168.08 42.0224C168.08 43.444 168.08 44.8656 168.08 46.2873C168.08 49.0765 168.08 51.8658 168.08 54.6551C168.08 61.3243 166.761 67.6038 166.11 74.117C164.927 85.9413 152.46 91.9432 144.65 99.4635C142.413 101.618 138.652 103.66 135.796 104.916C131.854 106.651 128.416 109.119 124.621 111.016C122.141 112.257 120.799 113.202 119.007 115.173C117.669 116.644 117.779 118.872 117.171 120.626C116.385 122.899 115.467 124.929 115.012 127.374C114.486 130.2 112.816 132.56 112.205 135.31C111.729 137.45 111.719 139.43 111.719 141.627C111.719 143.956 112.753 145.01 113.149 147.187C113.514 149.195 118.035 154.205 115.822 156.419C114.502 157.738 114.634 153.421 114.634 153.045C114.634 149.724 114.634 146.404 114.634 143.084C114.634 140.16 114.634 137.236 114.634 134.311C114.634 130.997 114.635 127.773 115.228 124.513C115.59 122.519 115.277 120.478 115.633 118.521C116.848 111.834 123.363 108.236 129.237 106.401C135.763 104.361 143.028 103.429 149.158 100.057C152.958 97.9672 155.591 93.915 157.769 90.2858C159.717 87.0388 162.473 83.7357 163.734 80.1635C165.588 74.9105 169.585 70.331 171.373 64.9664C172.78 60.7474 173.469 53.1149 172.075 48.9326C171.272 46.5221 168.925 44.4564 167.135 42.7782C165.195 40.9589 163.568 38.4046 161.386 36.8937C157.935 34.5045 155.317 30.8901 151.56 29.0117C149.786 28.1245 148.697 26.7232 146.918 25.8805C145.348 25.1369 143.983 24.3927 142.329 23.8021C138.217 22.3334 133.817 22.5874 129.48 22.5874C125.182 22.5874 120.875 22.5093 116.577 22.5874C114.411 22.6268 112.418 23.4793 110.261 23.5591C108.526 23.6234 106.344 23.8067 104.674 24.3149C103.063 24.8052 101.481 25.2129 99.8148 25.5026C98.2174 25.7805 96.9288 26.8401 95.307 26.9603C93.0928 27.1243 91.1683 29.0422 89.1526 29.8485C85.4121 31.3447 81.1194 34.8775 78.1934 37.6495C75.2541 40.4341 73.0913 43.4298 70.9053 46.7731C69.9649 48.2114 69.4795 50.1647 68.6919 51.7398C67.9287 53.2661 66.1371 55.9408 66.0466 57.5703C65.9706 58.9373 66.0466 60.3308 66.0466 61.7003C66.0466 64.1626 66.96 59.4076 67.0183 58.65C67.289 55.1309 71.3754 49.9344 73.8206 47.6639C76.8425 44.8578 79.5996 41.8195 82.8092 39.3231C86.1526 36.7227 89.167 33.7303 92.5267 31.1172C95.7262 28.6287 100.187 27.6981 103.702 25.7456C109.911 22.2958 118.514 23.0733 125.431 23.0733C128.77 23.0733 133.395 22.2098 136.498 23.4512C139.97 24.84 143.492 25.9362 146.702 27.824C148.591 28.9352 152.428 30.0336 153.747 31.792C155.512 34.145 159.322 34.9612 161.278 37.4066C163.461 40.1354 165.589 42.3181 167.351 45.4505C169.302 48.9183 169.538 51.4504 169.538 55.3569C169.538 59.2126 170.724 62.081 168.566 65.7222C166.492 69.2222 164.184 72.5615 162.142 76.0335C158.28 82.5981 154.184 90.0159 147.188 93.9029C145.493 94.8445 144.325 96.6806 142.572 97.6549C140.826 98.6245 139.211 99.7382 137.47 100.705C135.774 101.648 133.982 102.469 132.341 103.512C131.013 104.358 128.796 106.474 127.267 106.644C126.072 106.776 124.346 108.138 123.11 108.587C121.345 109.229 120.142 110.541 118.521 111.394C116.767 112.317 112.69 115.257 112.69 117.333" stroke="#D31C1C" stroke-width="3" stroke-linecap="round"/>
<path d="M159.82 33.7625C161.052 35.3259 163.239 36.4427 164.085 38.1354C164.431 38.8273 165.415 41.7744 164.679 39.566C164.072 37.7463 163.316 37.1873 162.358 35.706C161.929 35.0431 160.898 34.875 160.306 34.2484C159.784 33.6961 159.68 32.7755 159.091 32.3049C157.735 31.22 162.732 33.0148 162.628 32.7907C162.003 31.4519 159.672 29.7815 158.606 28.7148C156.561 26.67 153.327 25.1541 150.832 24.045C144.417 21.1942 137.648 22.4689 130.668 22.1015C128.727 21.9994 132.604 21.1298 133.34 21.1298C134.717 21.1298 136.093 21.1298 137.47 21.1298C139.311 21.1298 145.597 20.2439 146.216 22.1015" stroke="#D31C1C" stroke-width="3" stroke-linecap="round"/>
<path d="M170.024 61.4573C170.024 58.8493 168.566 56.973 168.566 54.6551C168.566 52.5491 167.868 51.1579 167.216 49.2025C166.481 46.9973 165.428 46.0588 164.193 44.3438C163.619 43.5467 160.891 38.9415 163.95 41.3205C164.598 41.8242 167.594 43.6442 167.594 41.7794C167.594 40.2643 165.974 38.6854 168.323 40.5647C169.668 41.6409 169.281 43.5387 169.781 44.9376C170.052 45.6974 169.787 46.6778 170.132 47.367C170.636 48.3748 171.433 48.9263 171.481 50.1742C171.747 57.0791 173.242 64.7022 169.781 70.9319C166.547 76.7521 164.207 83.3921 160.792 89.3681C158.853 92.7616 155.701 94.9204 152.775 97.196C151.463 98.2164 150.045 98.3837 148.402 98.3837C146.328 98.3837 148.908 96.3933 149.725 95.5765C152.154 93.1474 154.004 90.5956 156.419 88.1804C157.955 86.6442 158.479 84.428 159.82 82.8358C162.305 79.8856 160.529 82.1274 158.848 83.8075C154.359 88.2974 148.376 91.2529 143.355 95.1986C139.469 98.2516 134.395 98.9931 130.452 101.893C128.347 103.441 126.445 105.289 124.243 106.644C122.429 107.76 120.17 108.265 118.278 109.316C115.111 111.075 111.719 113.86 111.719 117.819" stroke="#D31C1C" stroke-width="3" stroke-linecap="round"/>
<path d="M120.95 179.039C120.452 178.54 117.112 174.24 117.063 176.232C117.031 177.568 117.23 178.732 117.549 180.011" stroke="#D31C1C" stroke-width="3" stroke-linecap="round"/>
<path d="M112.343 155.142C112.356 155.676 112.51 156.069 112.756 156.51C113.017 156.981 113.195 157.486 113.439 157.975C113.758 158.613 113.426 157.519 113.418 157.313C113.409 157.088 113.222 156.962 113.222 156.705C113.222 156.526 113.156 156.271 113.103 156.097C112.98 155.699 113.027 155.265 113.027 154.849C113.027 154.506 113.009 155.019 112.951 155.142C112.884 155.284 112.65 155.513 112.636 155.631C112.554 156.329 112.027 157.592 112.832 158.095C113.228 158.343 113.512 158.395 114.004 158.366C114.271 158.351 113.235 157.341 113.222 157.172C113.203 156.921 113.027 156.743 113.027 156.488C113.027 156.235 113.027 155.982 113.027 155.728C113.027 155.337 113.027 154.947 113.027 154.556C113.027 153.707 113.034 152.869 112.614 152.113C112.428 151.777 112.122 151.42 111.855 151.136C111.2 150.443 110.83 149.771 110.389 148.889" stroke="black" stroke-linecap="round"/>
<path d="M136.28 102.871C136.904 102.603 137.415 102.142 138.061 101.915C139.376 101.454 140.46 100.539 141.654 99.8419" stroke="black" stroke-linecap="round"/>
<path d="M94.8541 32.8174C94.613 32.5763 93.9943 32.0372 94.3222 31.9435C94.5829 31.869 94.8374 31.7857 95.1038 31.7373C95.7993 31.6108 96.5707 31.3157 97.2207 31.0588C98.127 30.7005 99.1595 30.6071 100.038 30.2228C100.205 30.1496 100.66 29.8221 100.374 29.5932C100.203 29.4563 100.01 29.4955 99.7882 29.4955C98.7736 29.4955 98.0461 30.5136 97.0036 30.6625C96.3182 30.7604 95.6646 31.1823 94.9953 31.3736C94.3055 31.5706 93.6662 32.1061 92.9978 32.3289" stroke="black" stroke-linecap="round"/>
<path d="M82.7389 37.3118C83.5597 36.27 85.0144 35.5328 86.202 35.0103C87.263 34.5435 88.416 33.9504 89.3828 33.3059" stroke="black" stroke-linecap="round"/>
<path d="M145.461 96.483C144.205 97.6341 142.459 97.8911 141.237 99.0517C140.793 99.4741 140.195 99.7348 139.731 100.138C139.104 100.683 138.645 101.403 138.002 101.929C137.429 102.398 136.733 103.031 136.001 103.164C135.714 103.216 133.979 103.914 134.001 104.09C134.115 105.004 137.684 102.951 137.928 102.757C139.23 101.72 139.181 100.458 139.904 99.0641C140.476 97.9607 141.47 97.1824 142.139 96.1372C143.212 94.461 144.818 92.8785 145.683 91.148" stroke="#D31C1C" stroke-linecap="round"/>
<path d="M152.352 94.7047C153.114 96.167 153.908 96.5824 154.908 94.8776C155.654 93.6065 156.353 92.1961 156.353 90.7034" stroke="#D31C1C" stroke-linecap="round"/>
<path d="M169.024 58.9156C168.862 57.9983 168.651 57.1303 168.357 56.2481" stroke="#D31C1C" stroke-linecap="round"/>
<path d="M82.5522 38.0202C84.977 35.0962 88.3484 33.1132 90.9993 30.4622" stroke="#D31C1C" stroke-linecap="round"/>
<path d="M68.5479 56.4704C68.7915 57.2319 69.1832 58.2694 69.2147 59.0885C69.2559 60.1578 69.2147 58.0117 69.2147 57.8042" stroke="#D31C1C" stroke-linecap="round"/>
</svg>
